<svg xmlns="http://www.w3.org/2000/svg" style="display:none">
<!-- SICAF/comun/iconos.svg (lo mantiene SOLO el integrador). Los mismos iconos del mockup general.
     Son de Lucide (lucide.dev, licencia ISC), version 1.47.0, con su trazo tal cual.
     Se usan asi: <svg class="ico" width="20" height="20"><use href="/SICAF/comun/iconos.svg#engranaje"/></svg>
     Toman el color del texto (currentColor) y el grosor del trazo sale de .ico en comun/estilos.css.
     La lista con sus nombres esta en comun/README.md. -->
<symbol id="cuadricula" viewBox="0 0 24 24" fill="none" stroke="currentColor" stroke-linecap="round" stroke-linejoin="round"><rect width="7" height="7" x="3" y="3" rx="1"/> <rect width="7" height="7" x="14" y="3" rx="1"/> <rect width="7" height="7" x="14" y="14" rx="1"/> <rect width="7" height="7" x="3" y="14" rx="1"/></symbol>
<symbol id="lapiz" viewBox="0 0 24 24" fill="none" stroke="currentColor" stroke-linecap="round" stroke-linejoin="round"><path d="M21.174 6.812a1 1 0 0 0-3.986-3.987L3.842 16.174a2 2 0 0 0-.5.83l-1.321 4.352a.5.5 0 0 0 .623.622l4.353-1.32a2 2 0 0 0 .83-.497z"/> <path d="m15 5 4 4"/></symbol>
<symbol id="carrito" viewBox="0 0 24 24" fill="none" stroke="currentColor" stroke-linecap="round" stroke-linejoin="round"><path d="m2.05 2.05 1.099-.028a1 1 0 0 1 1.008.815l2.69 14.347A1 1 0 0 0 7.83 18H18"/> <path d="M4.563 5h16.435a1 1 0 0 1 .981 1.204l-1.026 6.226A2 2 0 0 1 18.962 14H6.25"/> <circle cx="18" cy="20" r="2"/> <circle cx="8" cy="20" r="2"/></symbol>
<symbol id="caja" viewBox="0 0 24 24" fill="none" stroke="currentColor" stroke-linecap="round" stroke-linejoin="round"><path d="M11 21.73a2 2 0 0 0 2 0l7-4A2 2 0 0 0 21 16V8a2 2 0 0 0-1-1.73l-7-4a2 2 0 0 0-2 0l-7 4A2 2 0 0 0 3 8v8a2 2 0 0 0 1 1.73z"/> <path d="M12 22V12"/> <polyline points="3.29 7 12 12 20.71 7"/> <path d="m7.5 4.27 9 5.15"/></symbol>
<symbol id="engranaje" viewBox="0 0 24 24" fill="none" stroke="currentColor" stroke-linecap="round" stroke-linejoin="round"><path d="M9.671 4.136a2.34 2.34 0 0 1 4.659 0 2.34 2.34 0 0 0 3.319 1.915 2.34 2.34 0 0 1 2.33 4.033 2.34 2.34 0 0 0 0 3.831 2.34 2.34 0 0 1-2.33 4.033 2.34 2.34 0 0 0-3.319 1.915 2.34 2.34 0 0 1-4.659 0 2.34 2.34 0 0 0-3.32-1.915 2.34 2.34 0 0 1-2.33-4.033 2.34 2.34 0 0 0 0-3.831A2.34 2.34 0 0 1 6.35 6.051a2.34 2.34 0 0 0 3.319-1.915"/> <circle cx="12" cy="12" r="3"/></symbol>
<symbol id="visto" viewBox="0 0 24 24" fill="none" stroke="currentColor" stroke-linecap="round" stroke-linejoin="round"><path d="M21 10.656V19a2 2 0 0 1-2 2H5a2 2 0 0 1-2-2V5a2 2 0 0 1 2-2h12.344"/> <path d="m9 11 3 3L22 4"/></symbol>
<symbol id="barras" viewBox="0 0 24 24" fill="none" stroke="currentColor" stroke-linecap="round" stroke-linejoin="round"><path d="M3 3v16a2 2 0 0 0 2 2h16"/> <path d="M18 17V9"/> <path d="M13 17V5"/> <path d="M8 17v-3"/></symbol>
<symbol id="camion" viewBox="0 0 24 24" fill="none" stroke="currentColor" stroke-linecap="round" stroke-linejoin="round"><path d="M14 18V6a2 2 0 0 0-2-2H4a2 2 0 0 0-2 2v11a1 1 0 0 0 1 1h2"/> <path d="M15 18H9"/> <path d="M19 18h2a1 1 0 0 0 1-1v-3.65a1 1 0 0 0-.22-.624l-3.48-4.35A1 1 0 0 0 17.52 8H14"/> <circle cx="17" cy="18" r="2"/> <circle cx="7" cy="18" r="2"/></symbol>
<symbol id="usuario-mas" viewBox="0 0 24 24" fill="none" stroke="currentColor" stroke-linecap="round" stroke-linejoin="round"><path d="M16 21v-2a4 4 0 0 0-4-4H6a4 4 0 0 0-4 4v2"/> <circle cx="9" cy="7" r="4"/> <line x1="19" x2="19" y1="8" y2="14"/> <line x1="22" x2="16" y1="11" y2="11"/></symbol>
<symbol id="usuario" viewBox="0 0 24 24" fill="none" stroke="currentColor" stroke-linecap="round" stroke-linejoin="round"><path d="M19 21v-2a4 4 0 0 0-4-4H9a4 4 0 0 0-4 4v2"/> <circle cx="12" cy="7" r="4"/></symbol>
<symbol id="usuarios" viewBox="0 0 24 24" fill="none" stroke="currentColor" stroke-linecap="round" stroke-linejoin="round"><path d="M16 21v-2a4 4 0 0 0-4-4H6a4 4 0 0 0-4 4v2"/> <path d="M16 3.128a4 4 0 0 1 0 7.744"/> <path d="M22 21v-2a4 4 0 0 0-3-3.87"/> <circle cx="9" cy="7" r="4"/></symbol>
<symbol id="buscar" viewBox="0 0 24 24" fill="none" stroke="currentColor" stroke-linecap="round" stroke-linejoin="round"><path d="m21 21-4.34-4.34"/> <circle cx="11" cy="11" r="8"/></symbol>
<symbol id="campana" viewBox="0 0 24 24" fill="none" stroke="currentColor" stroke-linecap="round" stroke-linejoin="round"><path d="M10.268 21a2 2 0 0 0 3.464 0"/> <path d="M3.262 15.326A1 1 0 0 0 4 17h16a1 1 0 0 0 .74-1.673C19.41 13.956 18 12.499 18 8A6 6 0 0 0 6 8c0 4.499-1.411 5.956-2.738 7.326"/></symbol>
<symbol id="descargar" viewBox="0 0 24 24" fill="none" stroke="currentColor" stroke-linecap="round" stroke-linejoin="round"><path d="M12 15V3"/> <path d="M21 15v4a2 2 0 0 1-2 2H5a2 2 0 0 1-2-2v-4"/> <path d="m7 10 5 5 5-5"/></symbol>
<symbol id="editar" viewBox="0 0 24 24" fill="none" stroke="currentColor" stroke-linecap="round" stroke-linejoin="round"><path d="M12 3H5a2 2 0 0 0-2 2v14a2 2 0 0 0 2 2h14a2 2 0 0 0 2-2v-7"/> <path d="M18.375 2.625a1 1 0 0 1 3 3l-9.013 9.014a2 2 0 0 1-.853.505l-2.873.84a.5.5 0 0 1-.62-.62l.84-2.873a2 2 0 0 1 .506-.852z"/></symbol>
<symbol id="puntos" viewBox="0 0 24 24" fill="none" stroke="currentColor" stroke-linecap="round" stroke-linejoin="round"><circle cx="12" cy="12" r="1"/> <circle cx="12" cy="5" r="1"/> <circle cx="12" cy="19" r="1"/></symbol>
<symbol id="candado" viewBox="0 0 24 24" fill="none" stroke="currentColor" stroke-linecap="round" stroke-linejoin="round"><rect width="18" height="11" x="3" y="11" rx="2" ry="2"/> <path d="M7 11V7a5 5 0 0 1 10 0v4"/></symbol>
<symbol id="correo" viewBox="0 0 24 24" fill="none" stroke="currentColor" stroke-linecap="round" stroke-linejoin="round"><path d="m22 7-8.991 5.727a2 2 0 0 1-2.009 0L2 7"/> <rect x="2" y="4" width="20" height="16" rx="2"/></symbol>
<symbol id="flecha-abajo" viewBox="0 0 24 24" fill="none" stroke="currentColor" stroke-linecap="round" stroke-linejoin="round"><path d="m6 9 6 6 6-6"/></symbol>
<symbol id="info" viewBox="0 0 24 24" fill="none" stroke="currentColor" stroke-linecap="round" stroke-linejoin="round"><circle cx="12" cy="12" r="10"/> <path d="M12 16v-4"/> <path d="M12 8h.01"/></symbol>
<symbol id="alerta" viewBox="0 0 24 24" fill="none" stroke="currentColor" stroke-linecap="round" stroke-linejoin="round"><path d="m21.73 18-8-14a2 2 0 0 0-3.48 0l-8 14A2 2 0 0 0 4 21h16a2 2 0 0 0 1.73-3"/> <path d="M12 9v4"/> <path d="M12 17h.01"/></symbol>
<symbol id="cerrar" viewBox="0 0 24 24" fill="none" stroke="currentColor" stroke-linecap="round" stroke-linejoin="round"><path d="M18 6 6 18"/> <path d="m6 6 12 12"/></symbol>
<symbol id="mas" viewBox="0 0 24 24" fill="none" stroke="currentColor" stroke-linecap="round" stroke-linejoin="round"><path d="M5 12h14"/> <path d="M12 5v14"/></symbol>
<symbol id="zapato" viewBox="0 0 24 24" fill="none" stroke="currentColor" stroke-linecap="round" stroke-linejoin="round"><path d="M4 16v-2.38C4 11.5 2.97 10.5 3 8c.03-2.72 1.49-6 4.5-6C9.37 2 10 3.8 10 5.5c0 3.11-2 5.66-2 8.68V16a2 2 0 1 1-4 0Z"/> <path d="M20 20v-2.38c0-2.12 1.03-3.12 1-5.62-.03-2.72-1.49-6-4.5-6C14.63 6 14 7.8 14 9.5c0 3.11 2 5.66 2 8.68V20a2 2 0 1 0 4 0Z"/> <path d="M16 17h4"/> <path d="M4 13h4"/></symbol>
<symbol id="flecha-arriba" viewBox="0 0 24 24" fill="none" stroke="currentColor" stroke-linecap="round" stroke-linejoin="round"><path d="m5 12 7-7 7 7"/> <path d="M12 19V5"/></symbol>
<symbol id="lista" viewBox="0 0 24 24" fill="none" stroke="currentColor" stroke-linecap="round" stroke-linejoin="round"><path d="M3 5h.01"/> <path d="M3 12h.01"/> <path d="M3 19h.01"/> <path d="M8 5h13"/> <path d="M8 12h13"/> <path d="M8 19h13"/></symbol>
<symbol id="ruta" viewBox="0 0 24 24" fill="none" stroke="currentColor" stroke-linecap="round" stroke-linejoin="round"><circle cx="6" cy="19" r="3"/> <path d="M9 19h8.5a3.5 3.5 0 0 0 0-7h-11a3.5 3.5 0 0 1 0-7H15"/> <circle cx="18" cy="5" r="3"/></symbol>
<symbol id="frasco" viewBox="0 0 24 24" fill="none" stroke="currentColor" stroke-linecap="round" stroke-linejoin="round"><path d="M14 2v6a2 2 0 0 0 .245.96l5.51 10.08A2 2 0 0 1 18 22H6a2 2 0 0 1-1.755-2.96l5.51-10.08A2 2 0 0 0 10 8V2"/> <path d="M6.453 15h11.094"/> <path d="M8.5 2h7"/></symbol>
<symbol id="etiqueta" viewBox="0 0 24 24" fill="none" stroke="currentColor" stroke-linecap="round" stroke-linejoin="round"><path d="M12.586 2.586A2 2 0 0 0 11.172 2H4a2 2 0 0 0-2 2v7.172a2 2 0 0 0 .586 1.414l8.704 8.704a2.426 2.426 0 0 0 3.42 0l6.58-6.58a2.426 2.426 0 0 0 0-3.42z"/> <circle cx="7.5" cy="7.5" r=".5" fill="currentColor"/></symbol>
<symbol id="entrar" viewBox="0 0 24 24" fill="none" stroke="currentColor" stroke-linecap="round" stroke-linejoin="round"><path d="m10 17 5-5-5-5"/> <path d="M15 12H3"/> <path d="M15 3h4a2 2 0 0 1 2 2v14a2 2 0 0 1-2 2h-4"/></symbol>
<symbol id="ojo" viewBox="0 0 24 24" fill="none" stroke="currentColor" stroke-linecap="round" stroke-linejoin="round"><path d="M2.062 12.348a1 1 0 0 1 0-.696 10.75 10.75 0 0 1 19.876 0 1 1 0 0 1 0 .696 10.75 10.75 0 0 1-19.876 0"/> <circle cx="12" cy="12" r="3"/></symbol>
<symbol id="ojo-tachado" viewBox="0 0 24 24" fill="none" stroke="currentColor" stroke-linecap="round" stroke-linejoin="round"><path d="M10.733 5.076a10.744 10.744 0 0 1 11.205 6.575 1 1 0 0 1 0 .696 10.747 10.747 0 0 1-1.444 2.49"/> <path d="M14.084 14.158a3 3 0 0 1-4.242-4.242"/> <path d="M17.479 17.499a10.75 10.75 0 0 1-15.417-5.151 1 1 0 0 1 0-.696 10.75 10.75 0 0 1 4.446-5.143"/> <path d="m2 2 20 20"/></symbol>
<symbol id="usuario-lleno" viewBox="0 0 24 24" fill="none" stroke="currentColor" stroke-linecap="round" stroke-linejoin="round"><path d="M19 21v-2a4 4 0 0 0-4-4H9a4 4 0 0 0-4 4v2"/> <circle cx="12" cy="7" r="4"/></symbol>
<symbol id="usuarios-lleno" viewBox="0 0 24 24" fill="none" stroke="currentColor" stroke-linecap="round" stroke-linejoin="round"><path d="M16 21v-2a4 4 0 0 0-4-4H6a4 4 0 0 0-4 4v2"/> <path d="M16 3.128a4 4 0 0 1 0 7.744"/> <path d="M22 21v-2a4 4 0 0 0-3-3.87"/> <circle cx="9" cy="7" r="4"/></symbol>
<symbol id="engranaje-lleno" viewBox="0 0 24 24" fill="none" stroke="currentColor" stroke-linecap="round" stroke-linejoin="round"><path d="M9.671 4.136a2.34 2.34 0 0 1 4.659 0 2.34 2.34 0 0 0 3.319 1.915 2.34 2.34 0 0 1 2.33 4.033 2.34 2.34 0 0 0 0 3.831 2.34 2.34 0 0 1-2.33 4.033 2.34 2.34 0 0 0-3.319 1.915 2.34 2.34 0 0 1-4.659 0 2.34 2.34 0 0 0-3.32-1.915 2.34 2.34 0 0 1-2.33-4.033 2.34 2.34 0 0 0 0-3.831A2.34 2.34 0 0 1 6.35 6.051a2.34 2.34 0 0 0 3.319-1.915"/> <circle cx="12" cy="12" r="3"/></symbol>
<symbol id="barras-lleno" viewBox="0 0 24 24" fill="none" stroke="currentColor" stroke-linecap="round" stroke-linejoin="round"><path d="M3 3v16a2 2 0 0 0 2 2h16"/> <path d="M18 17V9"/> <path d="M13 17V5"/> <path d="M8 17v-3"/></symbol>
<symbol id="caja-llena" viewBox="0 0 24 24" fill="none" stroke="currentColor" stroke-linecap="round" stroke-linejoin="round"><path d="M11 21.73a2 2 0 0 0 2 0l7-4A2 2 0 0 0 21 16V8a2 2 0 0 0-1-1.73l-7-4a2 2 0 0 0-2 0l-7 4A2 2 0 0 0 3 8v8a2 2 0 0 0 1 1.73z"/> <path d="M12 22V12"/> <polyline points="3.29 7 12 12 20.71 7"/> <path d="m7.5 4.27 9 5.15"/></symbol>
<symbol id="camion-lleno" viewBox="0 0 24 24" fill="none" stroke="currentColor" stroke-linecap="round" stroke-linejoin="round"><path d="M14 18V6a2 2 0 0 0-2-2H4a2 2 0 0 0-2 2v11a1 1 0 0 0 1 1h2"/> <path d="M15 18H9"/> <path d="M19 18h2a1 1 0 0 0 1-1v-3.65a1 1 0 0 0-.22-.624l-3.48-4.35A1 1 0 0 0 17.52 8H14"/> <circle cx="17" cy="18" r="2"/> <circle cx="7" cy="18" r="2"/></symbol>
<symbol id="lapiz-lleno" viewBox="0 0 24 24" fill="none" stroke="currentColor" stroke-linecap="round" stroke-linejoin="round"><path d="M21.174 6.812a1 1 0 0 0-3.986-3.987L3.842 16.174a2 2 0 0 0-.5.83l-1.321 4.352a.5.5 0 0 0 .623.622l4.353-1.32a2 2 0 0 0 .83-.497z"/> <path d="m15 5 4 4"/></symbol>
<symbol id="casilla-llena" viewBox="0 0 24 24" fill="none" stroke="currentColor" stroke-linecap="round" stroke-linejoin="round"><path d="M21 10.656V19a2 2 0 0 1-2 2H5a2 2 0 0 1-2-2V5a2 2 0 0 1 2-2h12.344"/> <path d="m9 11 3 3L22 4"/></symbol>
<symbol id="plegar" viewBox="0 0 24 24" fill="none" stroke="currentColor" stroke-linecap="round" stroke-linejoin="round"><rect width="18" height="18" x="3" y="3" rx="2"/> <path d="M9 3v18"/> <path d="m16 15-3-3 3-3"/></symbol>
<symbol id="desplegar" viewBox="0 0 24 24" fill="none" stroke="currentColor" stroke-linecap="round" stroke-linejoin="round"><rect width="18" height="18" x="3" y="3" rx="2"/> <path d="M9 3v18"/> <path d="m14 9 3 3-3 3"/></symbol>
<symbol id="bandeja" viewBox="0 0 24 24" fill="none" stroke="currentColor" stroke-linecap="round" stroke-linejoin="round"><polyline points="22 12 16 12 14 15 10 15 8 12 2 12"/> <path d="M5.45 5.11 2 12v6a2 2 0 0 0 2 2h16a2 2 0 0 0 2-2v-6l-3.45-6.89A2 2 0 0 0 16.76 4H7.24a2 2 0 0 0-1.79 1.11z"/></symbol>
<symbol id="reloj" viewBox="0 0 24 24" fill="none" stroke="currentColor" stroke-linecap="round" stroke-linejoin="round"><line x1="10" x2="14" y1="2" y2="2"/> <line x1="12" x2="15" y1="14" y2="11"/> <circle cx="12" cy="14" r="8"/></symbol>
<symbol id="portapapeles" viewBox="0 0 24 24" fill="none" stroke="currentColor" stroke-linecap="round" stroke-linejoin="round"><rect width="8" height="4" x="8" y="2" rx="1" ry="1"/> <path d="M16 4h2a2 2 0 0 1 2 2v14a2 2 0 0 1-2 2H6a2 2 0 0 1-2-2V6a2 2 0 0 1 2-2h2"/> <path d="M12 11h4"/> <path d="M12 16h4"/> <path d="M8 11h.01"/> <path d="M8 16h.01"/></symbol>
<symbol id="escudo" viewBox="0 0 24 24" fill="none" stroke="currentColor" stroke-linecap="round" stroke-linejoin="round"><path d="M20 13c0 5-3.5 7.5-7.66 8.95a1 1 0 0 1-.67-.01C7.5 20.5 4 18 4 13V6a1 1 0 0 1 1-1c2 0 4.5-1.2 6.24-2.72a1.17 1.17 0 0 1 1.52 0C14.51 3.81 17 5 19 5a1 1 0 0 1 1 1z"/></symbol>
<symbol id="base-datos" viewBox="0 0 24 24" fill="none" stroke="currentColor" stroke-linecap="round" stroke-linejoin="round"><ellipse cx="12" cy="5" rx="9" ry="3"/> <path d="M3 5v14a9 3 0 0 0 18 0V5"/> <path d="M3 12a9 3 0 0 0 18 0"/></symbol>
<symbol id="billete" viewBox="0 0 24 24" fill="none" stroke="currentColor" stroke-linecap="round" stroke-linejoin="round"><rect width="20" height="12" x="2" y="6" rx="2"/> <circle cx="12" cy="12" r="2"/> <path d="M6 12h.01M18 12h.01"/></symbol>
<symbol id="ubicacion" viewBox="0 0 24 24" fill="none" stroke="currentColor" stroke-linecap="round" stroke-linejoin="round"><path d="M20 10c0 4.993-5.539 10.193-7.399 11.799a1 1 0 0 1-1.202 0C9.539 20.193 4 14.993 4 10a8 8 0 0 1 16 0"/> <circle cx="12" cy="10" r="3"/></symbol>
<symbol id="factura" viewBox="0 0 24 24" fill="none" stroke="currentColor" stroke-linecap="round" stroke-linejoin="round"><path d="M4 2v20l2-1 2 1 2-1 2 1 2-1 2 1 2-1 2 1V2l-2 1-2-1-2 1-2-1-2 1-2-1-2 1Z"/> <path d="M16 8h-6a2 2 0 1 0 0 4h4a2 2 0 1 1 0 4H8"/> <path d="M12 17.5v-11"/></symbol>
</svg>
